<svg width="29" height="30" viewBox="0 0 29 30" fill="none" xmlns="http://www.w3.org/2000/svg">
<path d="M26.1 14.9999C26.1 11.9234 24.8778 8.97289 22.7024 6.79746C20.527 4.62204 17.5765 3.3999 14.5 3.3999C11.4235 3.3999 8.47295 4.62204 6.29752 6.79746C4.1221 8.97289 2.89996 11.9234 2.89996 14.9999C2.89996 18.0764 4.1221 21.0269 6.29752 23.2023C8.47295 25.3778 11.4235 26.5999 14.5 26.5999C17.5765 26.5999 20.527 25.3778 22.7024 23.2023C24.8778 21.0269 26.1 18.0764 26.1 14.9999ZM13.7866 13.4194C13.8168 13.2522 13.9048 13.101 14.0352 12.9921C14.1656 12.8832 14.3301 12.8236 14.5 12.8236C14.6698 12.8236 14.8343 12.8832 14.9647 12.9921C15.0951 13.101 15.1831 13.2522 15.2134 13.4194L15.225 13.5499V20.0778L15.2134 20.2083C15.1831 20.3755 15.0951 20.5267 14.9647 20.6356C14.8343 20.7445 14.6698 20.8041 14.5 20.8041C14.3301 20.8041 14.1656 20.7445 14.0352 20.6356C13.9048 20.5267 13.8168 20.3755 13.7866 20.2083L13.775 20.0778V13.5499L13.7866 13.4194ZM13.4125 10.2874C13.4125 9.99898 13.527 9.72237 13.731 9.51842C13.9349 9.31448 14.2115 9.1999 14.5 9.1999C14.7884 9.1999 15.065 9.31448 15.2689 9.51842C15.4729 9.72237 15.5875 9.99898 15.5875 10.2874C15.5875 10.5758 15.4729 10.8524 15.2689 11.0564C15.065 11.2603 14.7884 11.3749 14.5 11.3749C14.2115 11.3749 13.9349 11.2603 13.731 11.0564C13.527 10.8524 13.4125 10.5758 13.4125 10.2874Z" fill="#E20338"/>
</svg>
