<svg width="24" height="25" viewBox="0 0 24 25" fill="none" xmlns="http://www.w3.org/2000/svg">
<g id="Icon/Outline/image">
<g id="&#240;&#159;&#142;&#168; Color">
<path id="Mask" fill-rule="evenodd" clip-rule="evenodd" d="M8 10.4637C8.828 10.4637 9.5 9.78922 9.5 8.95812C9.5 8.12701 8.828 7.4525 8 7.4525C7.172 7.4525 6.5 8.12701 6.5 8.95812C6.5 9.78922 7.172 10.4637 8 10.4637ZM18 19.4975H6.561L13.566 13.6306C13.812 13.4208 14.258 13.4218 14.499 13.6296L19 17.484V18.4937C19 19.0478 18.552 19.4975 18 19.4975ZM6 5.445H18C18.552 5.445 19 5.89468 19 6.44875V14.8441L15.797 12.1019C14.807 11.2567 13.258 11.2567 12.277 12.0958L5 18.1906V6.44875C5 5.89468 5.448 5.445 6 5.445ZM18 3.4375H6C4.346 3.4375 3 4.78855 3 6.44875V18.4937C3 20.1539 4.346 21.505 6 21.505H18C19.654 21.505 21 20.1539 21 18.4937V6.44875C21 4.78855 19.654 3.4375 18 3.4375Z" fill="white"/>
<mask id="mask0_198_10905" style="mask-type:luminance" maskUnits="userSpaceOnUse" x="3" y="3" width="18" height="19">
<path id="Mask_2" fill-rule="evenodd" clip-rule="evenodd" d="M8 10.4637C8.828 10.4637 9.5 9.78922 9.5 8.95812C9.5 8.12701 8.828 7.4525 8 7.4525C7.172 7.4525 6.5 8.12701 6.5 8.95812C6.5 9.78922 7.172 10.4637 8 10.4637ZM18 19.4975H6.561L13.566 13.6306C13.812 13.4208 14.258 13.4218 14.499 13.6296L19 17.484V18.4937C19 19.0478 18.552 19.4975 18 19.4975ZM6 5.445H18C18.552 5.445 19 5.89468 19 6.44875V14.8441L15.797 12.1019C14.807 11.2567 13.258 11.2567 12.277 12.0958L5 18.1906V6.44875C5 5.89468 5.448 5.445 6 5.445ZM18 3.4375H6C4.346 3.4375 3 4.78855 3 6.44875V18.4937C3 20.1539 4.346 21.505 6 21.505H18C19.654 21.505 21 20.1539 21 18.4937V6.44875C21 4.78855 19.654 3.4375 18 3.4375Z" fill="white"/>
</mask>
<g mask="url(#mask0_198_10905)">
<g id="&#240;&#159;&#142;&#168; Color_2">
<rect id="Base" y="0.425781" width="24" height="24.09" fill="white"/>
</g>
</g>
</g>
</g>
</svg>
