<svg width="24" height="25" viewBox="0 0 24 25" fill="none" xmlns="http://www.w3.org/2000/svg">
<g id="Icon/Outline/plus" filter="url(#filter0_dd_198_10885)">
<path id="Mask" fill-rule="evenodd" clip-rule="evenodd" d="M19 11.8583H13V5.83578C13 5.28071 12.552 4.83203 12 4.83203C11.448 4.83203 11 5.28071 11 5.83578V11.8583H5C4.448 11.8583 4 12.3069 4 12.862C4 13.4171 4.448 13.8658 5 13.8658H11V19.8883C11 20.4433 11.448 20.892 12 20.892C12.552 20.892 13 20.4433 13 19.8883V13.8658H19C19.552 13.8658 20 13.4171 20 12.862C20 12.3069 19.552 11.8583 19 11.8583Z" fill="#231F20"/>
<mask id="mask0_198_10885" style="mask-type:luminance" maskUnits="userSpaceOnUse" x="4" y="4" width="16" height="17">
<path id="Mask_2" fill-rule="evenodd" clip-rule="evenodd" d="M19 11.8583H13V5.83578C13 5.28071 12.552 4.83203 12 4.83203C11.448 4.83203 11 5.28071 11 5.83578V11.8583H5C4.448 11.8583 4 12.3069 4 12.862C4 13.4171 4.448 13.8658 5 13.8658H11V19.8883C11 20.4433 11.448 20.892 12 20.892C12.552 20.892 13 20.4433 13 19.8883V13.8658H19C19.552 13.8658 20 13.4171 20 12.862C20 12.3069 19.552 11.8583 19 11.8583Z" fill="white"/>
</mask>
<g mask="url(#mask0_198_10885)">
<g id="&#240;&#159;&#142;&#168; Color" filter="url(#filter1_dd_198_10885)">
<rect id="Base" y="0.816406" width="24" height="24.09" fill="white"/>
</g>
</g>
</g>
<defs>
<filter id="filter0_dd_198_10885" x="-2" y="-0.183594" width="28" height="28.0898" filterUnits="userSpaceOnUse" color-interpolation-filters="sRGB">
<feFlood flood-opacity="0" result="BackgroundImageFix"/>
<feColorMatrix in="SourceAlpha" type="matrix" values="0 0 0 0 0 0 0 0 0 0 0 0 0 0 0 0 0 0 127 0" result="hardAlpha"/>
<feOffset dy="1"/>
<feGaussianBlur stdDeviation="0.5"/>
<feColorMatrix type="matrix" values="0 0 0 0 0 0 0 0 0 0 0 0 0 0 0 0 0 0 0.03 0"/>
<feBlend mode="normal" in2="BackgroundImageFix" result="effect1_dropShadow_198_10885"/>
<feColorMatrix in="SourceAlpha" type="matrix" values="0 0 0 0 0 0 0 0 0 0 0 0 0 0 0 0 0 0 127 0" result="hardAlpha"/>
<feOffset dy="1"/>
<feGaussianBlur stdDeviation="1"/>
<feColorMatrix type="matrix" values="0 0 0 0 0 0 0 0 0 0 0 0 0 0 0 0 0 0 0.03 0"/>
<feBlend mode="normal" in2="effect1_dropShadow_198_10885" result="effect2_dropShadow_198_10885"/>
<feBlend mode="normal" in="SourceGraphic" in2="effect2_dropShadow_198_10885" result="shape"/>
</filter>
<filter id="filter1_dd_198_10885" x="-2" y="-0.183594" width="28" height="28.0898" filterUnits="userSpaceOnUse" color-interpolation-filters="sRGB">
<feFlood flood-opacity="0" result="BackgroundImageFix"/>
<feColorMatrix in="SourceAlpha" type="matrix" values="0 0 0 0 0 0 0 0 0 0 0 0 0 0 0 0 0 0 127 0" result="hardAlpha"/>
<feOffset dy="1"/>
<feGaussianBlur stdDeviation="0.5"/>
<feColorMatrix type="matrix" values="0 0 0 0 0 0 0 0 0 0 0 0 0 0 0 0 0 0 0.03 0"/>
<feBlend mode="normal" in2="BackgroundImageFix" result="effect1_dropShadow_198_10885"/>
<feColorMatrix in="SourceAlpha" type="matrix" values="0 0 0 0 0 0 0 0 0 0 0 0 0 0 0 0 0 0 127 0" result="hardAlpha"/>
<feOffset dy="1"/>
<feGaussianBlur stdDeviation="1"/>
<feColorMatrix type="matrix" values="0 0 0 0 0 0 0 0 0 0 0 0 0 0 0 0 0 0 0.03 0"/>
<feBlend mode="normal" in2="effect1_dropShadow_198_10885" result="effect2_dropShadow_198_10885"/>
<feBlend mode="normal" in="SourceGraphic" in2="effect2_dropShadow_198_10885" result="shape"/>
</filter>
</defs>
</svg>
