<svg width="24" height="25" viewBox="0 0 24 25" fill="none" xmlns="http://www.w3.org/2000/svg">
<g id="Icon/Outline/file">
<path id="Mask" fill-rule="evenodd" clip-rule="evenodd" d="M17.4442 20.6886H6.55524C6.24924 20.6886 6.00024 20.4637 6.00024 20.1867V5.13047C6.00024 4.85343 6.24924 4.62859 6.55524 4.62859H11.0002V8.79415C11.0002 10.372 12.2172 11.6548 13.7142 11.6548H18.0002V20.1867C18.0002 20.4637 17.7502 20.6886 17.4442 20.6886ZM17.6492 9.64734H13.7142C13.3202 9.64734 13.0002 9.26491 13.0002 8.79415V4.62859H13.1122L17.6492 9.64734ZM19.7402 8.97282L14.2962 2.95032C14.1072 2.74054 13.8382 2.62109 13.5552 2.62109H6.55524C5.14624 2.62109 4.00024 3.7473 4.00024 5.13047V20.1867C4.00024 21.5699 5.14624 22.6961 6.55524 22.6961H17.4442C18.8532 22.6961 20.0002 21.5699 20.0002 20.1867V9.64734C20.0002 9.3974 19.9072 9.15751 19.7402 8.97282Z" fill="white"/>
<mask id="mask0_198_10892" style="mask-type:luminance" maskUnits="userSpaceOnUse" x="4" y="2" width="17" height="21">
<path id="Mask_2" fill-rule="evenodd" clip-rule="evenodd" d="M17.4442 20.6886H6.55524C6.24924 20.6886 6.00024 20.4637 6.00024 20.1867V5.13047C6.00024 4.85343 6.24924 4.62859 6.55524 4.62859H11.0002V8.79415C11.0002 10.372 12.2172 11.6548 13.7142 11.6548H18.0002V20.1867C18.0002 20.4637 17.7502 20.6886 17.4442 20.6886ZM17.6492 9.64734H13.7142C13.3202 9.64734 13.0002 9.26491 13.0002 8.79415V4.62859H13.1122L17.6492 9.64734ZM19.7402 8.97282L14.2962 2.95032C14.1072 2.74054 13.8382 2.62109 13.5552 2.62109H6.55524C5.14624 2.62109 4.00024 3.7473 4.00024 5.13047V20.1867C4.00024 21.5699 5.14624 22.6961 6.55524 22.6961H17.4442C18.8532 22.6961 20.0002 21.5699 20.0002 20.1867V9.64734C20.0002 9.3974 19.9072 9.15751 19.7402 8.97282Z" fill="white"/>
</mask>
<g mask="url(#mask0_198_10892)">
<g id="&#240;&#159;&#142;&#168; Color">
<rect id="Base" y="0.613281" width="24" height="24.09" fill="white"/>
</g>
</g>
</g>
</svg>
