<svg width="24" height="25" viewBox="0 0 24 25" fill="none" xmlns="http://www.w3.org/2000/svg">
<g id="Icon/Outline/film">
<path id="Mask" fill-rule="evenodd" clip-rule="evenodd" d="M19 18.5632C19 18.9747 18.666 19.31 18.256 19.31H17V17.3025H19V18.5632ZM5 18.5632V17.3025H7V19.31H5.744C5.334 19.31 5 18.9747 5 18.5632ZM5.744 5.2575H7V7.265H5V6.00429C5 5.59275 5.334 5.2575 5.744 5.2575ZM19 6.00429V7.265H17V5.2575H18.256C18.666 5.2575 19 5.59275 19 6.00429ZM17 15.295H19V13.2875H17V15.295ZM17 11.28H19V9.27249H17V11.28ZM9 19.31H15V5.2575H9V19.31ZM5 15.295H7V13.2875H5V15.295ZM5 11.28H7V9.27249H5V11.28ZM18.256 3.25H5.744C4.231 3.25 3 4.48662 3 6.00429V18.5632C3 20.0819 4.231 21.3175 5.744 21.3175H18.256C19.769 21.3175 21 20.0819 21 18.5632V6.00429C21 4.48662 19.769 3.25 18.256 3.25Z" fill="white"/>
<mask id="mask0_198_10921" style="mask-type:luminance" maskUnits="userSpaceOnUse" x="3" y="3" width="18" height="19">
<path id="Mask_2" fill-rule="evenodd" clip-rule="evenodd" d="M19 18.5632C19 18.9747 18.666 19.31 18.256 19.31H17V17.3025H19V18.5632ZM5 18.5632V17.3025H7V19.31H5.744C5.334 19.31 5 18.9747 5 18.5632ZM5.744 5.2575H7V7.265H5V6.00429C5 5.59275 5.334 5.2575 5.744 5.2575ZM19 6.00429V7.265H17V5.2575H18.256C18.666 5.2575 19 5.59275 19 6.00429ZM17 15.295H19V13.2875H17V15.295ZM17 11.28H19V9.27249H17V11.28ZM9 19.31H15V5.2575H9V19.31ZM5 15.295H7V13.2875H5V15.295ZM5 11.28H7V9.27249H5V11.28ZM18.256 3.25H5.744C4.231 3.25 3 4.48662 3 6.00429V18.5632C3 20.0819 4.231 21.3175 5.744 21.3175H18.256C19.769 21.3175 21 20.0819 21 18.5632V6.00429C21 4.48662 19.769 3.25 18.256 3.25Z" fill="white"/>
</mask>
<g mask="url(#mask0_198_10921)">
<g id="&#240;&#159;&#142;&#168; Color">
<rect id="Base" y="0.238281" width="24" height="24.09" fill="white"/>
</g>
</g>
</g>
</svg>
