<svg width="28" height="29" viewBox="0 0 28 29" fill="none" xmlns="http://www.w3.org/2000/svg">
<g id="Icon/Outline/all-done">
<path id="Mask" fill-rule="evenodd" clip-rule="evenodd" d="M19.6845 7.56546C19.1958 7.16304 18.4886 7.25482 18.1046 7.76667L10.1598 18.3661L6.35458 13.4276C5.96269 12.9228 5.25548 12.8404 4.77125 13.2488C4.28589 13.6571 4.21044 14.3984 4.59895 14.9031L9.29377 20.9959C9.50886 21.2736 9.83093 21.4348 10.1721 21.4348H10.18C10.5224 21.4324 10.8467 21.2665 11.0584 20.983L19.8771 9.21632C20.2611 8.70565 20.1755 7.96553 19.6845 7.56546ZM25.3152 7.56546C24.8253 7.16304 24.1192 7.25482 23.7352 7.76667L15.7904 18.3661L15.1102 17.4847L13.6857 19.3874L14.9244 20.9959C15.1395 21.2736 15.4616 21.4348 15.8028 21.4348H15.8107C16.153 21.4324 16.4773 21.2665 16.6891 20.983L25.5077 9.21632C25.8918 8.70565 25.8062 7.96553 25.3152 7.56546ZM12.2112 13.7213L10.7844 15.6228L10.2304 14.9038C9.84073 14.3979 9.91618 13.6566 10.4015 13.2483C10.8869 12.8411 11.5952 12.9223 11.9849 13.4283L12.2112 13.7213Z" fill="#231F20"/>
<mask id="mask0_198_10964" style="mask-type:luminance" maskUnits="userSpaceOnUse" x="4" y="7" width="22" height="15">
<path id="Mask_2" fill-rule="evenodd" clip-rule="evenodd" d="M19.6845 7.56546C19.1958 7.16304 18.4886 7.25482 18.1046 7.76667L10.1598 18.3661L6.35458 13.4276C5.96269 12.9228 5.25548 12.8404 4.77125 13.2488C4.28589 13.6571 4.21044 14.3984 4.59895 14.9031L9.29377 20.9959C9.50886 21.2736 9.83093 21.4348 10.1721 21.4348H10.18C10.5224 21.4324 10.8467 21.2665 11.0584 20.983L19.8771 9.21632C20.2611 8.70565 20.1755 7.96553 19.6845 7.56546ZM25.3152 7.56546C24.8253 7.16304 24.1192 7.25482 23.7352 7.76667L15.7904 18.3661L15.1102 17.4847L13.6857 19.3874L14.9244 20.9959C15.1395 21.2736 15.4616 21.4348 15.8028 21.4348H15.8107C16.153 21.4324 16.4773 21.2665 16.6891 20.983L25.5077 9.21632C25.8918 8.70565 25.8062 7.96553 25.3152 7.56546ZM12.2112 13.7213L10.7844 15.6228L10.2304 14.9038C9.84073 14.3979 9.91618 13.6566 10.4015 13.2483C10.8869 12.8411 11.5952 12.9223 11.9849 13.4283L12.2112 13.7213Z" fill="white"/>
</mask>
<g mask="url(#mask0_198_10964)">
<g id="&#240;&#159;&#142;&#168; Color">
<rect id="Base" x="0.972656" y="0.255859" width="27.027" height="28.2399" fill="#11DA85"/>
</g>
</g>
</g>
</svg>
