<svg width="24" height="26" viewBox="0 0 24 26" fill="none" xmlns="http://www.w3.org/2000/svg">
<path fill-rule="evenodd" clip-rule="evenodd" d="M9.29354 22.6864C7.63754 22.6864 6.06354 21.9731 4.86154 20.6783C2.47354 18.1048 2.37554 14.0244 4.64254 11.5815L12.0285 3.62413C12.7975 2.7952 13.8355 2.33789 14.9505 2.33789C16.1435 2.33789 17.2775 2.85089 18.1425 3.78264C19.8635 5.63649 19.9295 8.58274 18.2885 10.3499L10.8935 18.3061C10.4145 18.8234 9.76954 19.1072 9.07754 19.1072C8.34654 19.1072 7.65354 18.7945 7.12754 18.2279C6.07454 17.0916 6.04154 15.2806 7.05454 14.1882L13.8795 6.84669C14.2695 6.42687 14.9015 6.42473 15.2935 6.84241C15.6845 7.26009 15.6865 7.93802 15.2965 8.35677L8.47254 15.6994C8.23254 15.9585 8.26554 16.4159 8.54654 16.7179C8.69254 16.8753 8.88654 16.9653 9.07754 16.9653C9.18754 16.9653 9.34554 16.9363 9.47554 16.7961L16.8705 8.83978C17.7375 7.90482 17.6725 6.31442 16.7245 5.29271C15.8175 4.31598 14.2785 4.23887 13.4465 5.13421L6.06054 13.0915C4.56654 14.7012 4.66454 17.4279 6.28054 19.1683C7.10354 20.0561 8.17354 20.5445 9.29354 20.5445C10.2945 20.5445 11.2225 20.1396 11.9045 19.4049L19.2915 11.4476C19.6805 11.0289 20.3135 11.0256 20.7055 11.4433C21.0965 11.861 21.0985 12.5379 20.7095 12.9577L13.3225 20.915C12.2625 22.0567 10.8315 22.6864 9.29354 22.6864Z" fill="#231F20"/>
<mask id="mask0_198_10850" style="mask-type:luminance" maskUnits="userSpaceOnUse" x="3" y="2" width="18" height="21">
<path fill-rule="evenodd" clip-rule="evenodd" d="M9.29354 22.6864C7.63754 22.6864 6.06354 21.9731 4.86154 20.6783C2.47354 18.1048 2.37554 14.0244 4.64254 11.5815L12.0285 3.62413C12.7975 2.7952 13.8355 2.33789 14.9505 2.33789C16.1435 2.33789 17.2775 2.85089 18.1425 3.78264C19.8635 5.63649 19.9295 8.58274 18.2885 10.3499L10.8935 18.3061C10.4145 18.8234 9.76954 19.1072 9.07754 19.1072C8.34654 19.1072 7.65354 18.7945 7.12754 18.2279C6.07454 17.0916 6.04154 15.2806 7.05454 14.1882L13.8795 6.84669C14.2695 6.42687 14.9015 6.42473 15.2935 6.84241C15.6845 7.26009 15.6865 7.93802 15.2965 8.35677L8.47254 15.6994C8.23254 15.9585 8.26554 16.4159 8.54654 16.7179C8.69254 16.8753 8.88654 16.9653 9.07754 16.9653C9.18754 16.9653 9.34554 16.9363 9.47554 16.7961L16.8705 8.83978C17.7375 7.90482 17.6725 6.31442 16.7245 5.29271C15.8175 4.31598 14.2785 4.23887 13.4465 5.13421L6.06054 13.0915C4.56654 14.7012 4.66454 17.4279 6.28054 19.1683C7.10354 20.0561 8.17354 20.5445 9.29354 20.5445C10.2945 20.5445 11.2225 20.1396 11.9045 19.4049L19.2915 11.4476C19.6805 11.0289 20.3135 11.0256 20.7055 11.4433C21.0965 11.861 21.0985 12.5379 20.7095 12.9577L13.3225 20.915C12.2625 22.0567 10.8315 22.6864 9.29354 22.6864Z" fill="white"/>
</mask>
<g mask="url(#mask0_198_10850)">
<rect y="0.195312" width="24" height="25.7034" fill="#707C97"/>
</g>
</svg>
