<svg width="21" height="23" viewBox="0 0 21 23" fill="none" xmlns="http://www.w3.org/2000/svg">
<g id="Icon/Fill/navigation-2" filter="url(#filter0_dd_198_10871)">
<path id="Mask" fill-rule="evenodd" clip-rule="evenodd" d="M12.3891 19.2267C12.3716 19.2267 12.3549 19.2259 12.3382 19.225C11.9616 19.2024 11.6474 18.9281 11.5724 18.5567L10.2907 12.2272C10.2241 11.8977 9.96825 11.6409 9.63992 11.5739L3.33408 10.2866C2.96408 10.2122 2.69075 9.89685 2.66825 9.51877C2.64575 9.13985 2.87825 8.79356 3.23658 8.67478L16.5699 4.21396C16.8691 4.11191 17.1991 4.19053 17.4224 4.41554C17.6457 4.63971 17.7232 4.97095 17.6241 5.27124L13.1791 18.6546C13.0657 18.9983 12.7457 19.2267 12.3891 19.2267Z" fill="#231F20"/>
<mask id="mask0_198_10871" style="mask-type:luminance" maskUnits="userSpaceOnUse" x="2" y="4" width="16" height="16">
<path id="Mask_2" fill-rule="evenodd" clip-rule="evenodd" d="M12.3891 19.2267C12.3716 19.2267 12.3549 19.2259 12.3382 19.225C11.9616 19.2024 11.6474 18.9281 11.5724 18.5567L10.2907 12.2272C10.2241 11.8977 9.96825 11.6409 9.63992 11.5739L3.33408 10.2866C2.96408 10.2122 2.69075 9.89685 2.66825 9.51877C2.64575 9.13985 2.87825 8.79356 3.23658 8.67478L16.5699 4.21396C16.8691 4.11191 17.1991 4.19053 17.4224 4.41554C17.6457 4.63971 17.7232 4.97095 17.6241 5.27124L13.1791 18.6546C13.0657 18.9983 12.7457 19.2267 12.3891 19.2267Z" fill="white"/>
</mask>
<g mask="url(#mask0_198_10871)">
<g id="&#240;&#159;&#142;&#168; Color">
<rect id="Base" x="1" y="0.824219" width="20" height="20.075" fill="white"/>
</g>
</g>
</g>
<defs>
<filter id="filter0_dd_198_10871" x="-1" y="-0.175781" width="24" height="24.0742" filterUnits="userSpaceOnUse" color-interpolation-filters="sRGB">
<feFlood flood-opacity="0" result="BackgroundImageFix"/>
<feColorMatrix in="SourceAlpha" type="matrix" values="0 0 0 0 0 0 0 0 0 0 0 0 0 0 0 0 0 0 127 0" result="hardAlpha"/>
<feOffset dy="1"/>
<feGaussianBlur stdDeviation="0.5"/>
<feColorMatrix type="matrix" values="0 0 0 0 0 0 0 0 0 0 0 0 0 0 0 0 0 0 0.03 0"/>
<feBlend mode="normal" in2="BackgroundImageFix" result="effect1_dropShadow_198_10871"/>
<feColorMatrix in="SourceAlpha" type="matrix" values="0 0 0 0 0 0 0 0 0 0 0 0 0 0 0 0 0 0 127 0" result="hardAlpha"/>
<feOffset dy="1"/>
<feGaussianBlur stdDeviation="1"/>
<feColorMatrix type="matrix" values="0 0 0 0 0 0 0 0 0 0 0 0 0 0 0 0 0 0 0.03 0"/>
<feBlend mode="normal" in2="effect1_dropShadow_198_10871" result="effect2_dropShadow_198_10871"/>
<feBlend mode="normal" in="SourceGraphic" in2="effect2_dropShadow_198_10871" result="shape"/>
</filter>
</defs>
</svg>
