<svg width="22" height="27" viewBox="0 0 22 27" fill="none" xmlns="http://www.w3.org/2000/svg">
<path d="M0.733333 8.32141H2.93333V25.317C2.93333 25.7227 3.26167 26.0517 3.66667 26.0517H18.3333C18.7383 26.0517 19.0667 25.7227 19.0667 25.317V8.32141H21.2667C21.6717 8.32141 22 7.99247 22 7.58673C22 7.18099 21.6717 6.85205 21.2667 6.85205H20.5333V4.64801C20.5333 4.24227 20.205 3.91333 19.8 3.91333H14.6667V1.70929C14.6667 1.30355 14.3383 0.974609 13.9333 0.974609H8.06667C7.66167 0.974609 7.33333 1.30355 7.33333 1.70929V3.91333H2.2C1.795 3.91333 1.46667 4.24227 1.46667 4.64801V6.85205H0.733333C0.328338 6.85205 0 7.18099 0 7.58673C0 7.99247 0.328338 8.32141 0.733333 8.32141ZM17.6 24.5823H4.4V8.32141H17.6V24.5823ZM8.8 2.44397H13.2V3.91333H8.8V2.44397ZM2.93333 5.38269H19.0667V6.85205H2.93333V5.38269Z" fill="#707C97"/>
</svg>
