<svg width="25" height="25" viewBox="0 0 25 25" fill="none" xmlns="http://www.w3.org/2000/svg">
<rect opacity="0.2" x="0.485352" y="24.5" width="24" height="24" rx="9" transform="rotate(-90 0.485352 24.5)" fill="white"/>
<path d="M14.2059 15.8781C14.1305 15.8785 14.0556 15.8631 13.9858 15.8325C13.9159 15.802 13.8523 15.757 13.7987 15.7001C13.745 15.6431 13.7023 15.5752 13.6732 15.5004C13.6441 15.4256 13.6291 15.3454 13.6291 15.2644C13.6291 15.1834 13.6441 15.1032 13.6732 15.0284C13.7023 14.9536 13.745 14.8857 13.7987 14.8287L15.4046 13.1165L8.18388 13.1165C8.03177 13.1165 7.88589 13.0518 7.77833 12.9367C7.67078 12.8216 7.61035 12.6656 7.61035 12.5028C7.61035 12.34 7.67078 12.1839 7.77833 12.0688C7.88589 11.9538 8.03177 11.8891 8.18388 11.8891L15.4046 11.8891L13.7987 10.1769C13.7453 10.1197 13.7028 10.0518 13.6739 9.97701C13.645 9.90225 13.6301 9.82212 13.6301 9.7412C13.6301 9.57777 13.6907 9.42104 13.7987 9.30548C13.9067 9.18992 14.0532 9.125 14.2059 9.125C14.3587 9.125 14.5051 9.18992 14.6131 9.30548L17.194 12.0671C17.2462 12.1254 17.2872 12.1943 17.3145 12.2696C17.3439 12.3434 17.3594 12.4226 17.3604 12.5028C17.3594 12.583 17.3439 12.6622 17.3145 12.736C17.2872 12.8113 17.2462 12.8801 17.194 12.9385L14.6131 15.7001C14.5596 15.757 14.496 15.802 14.4261 15.8325C14.3562 15.8631 14.2814 15.8785 14.2059 15.8781Z" fill="white"/>
</svg>
